<mxfile host="app.diagrams.net" modified="2023-10-18T12:29:11.990Z" agent="Mozilla/5.0 (Windows NT 10.0; Win64; x64; rv:109.0) Gecko/20100101 Firefox/118.0" etag="2fVoSBC_c_MhBYkvH1e_" version="22.0.4" type="device">
  <diagram name="Page-1" id="03018318-947c-dd8e-b7a3-06fadd420f32">
    <mxGraphModel dx="1418" dy="726" grid="1" gridSize="10" guides="1" tooltips="1" connect="1" arrows="1" fold="1" page="1" pageScale="1" pageWidth="1100" pageHeight="850" background="none" math="0" shadow="0">
      <root>
        <mxCell id="0" />
        <mxCell id="1" parent="0" />
        <mxCell id="_U8HGJSXaKbL03fdwX9O-1" value="" style="rounded=0;whiteSpace=wrap;html=1;" vertex="1" parent="1">
          <mxGeometry x="130" y="60" width="330" height="650" as="geometry" />
        </mxCell>
        <mxCell id="_U8HGJSXaKbL03fdwX9O-6" value="" style="rounded=0;whiteSpace=wrap;html=1;" vertex="1" parent="1">
          <mxGeometry x="150" y="149" width="290" height="290" as="geometry" />
        </mxCell>
        <mxCell id="_U8HGJSXaKbL03fdwX9O-10" value="" style="rounded=0;whiteSpace=wrap;html=1;" vertex="1" parent="1">
          <mxGeometry x="160" y="570" width="260" height="40" as="geometry" />
        </mxCell>
        <mxCell id="_U8HGJSXaKbL03fdwX9O-11" value="&lt;font style=&quot;font-size: 18px;&quot;&gt;Take Image&lt;br&gt;&lt;/font&gt;" style="text;html=1;strokeColor=none;fillColor=none;align=center;verticalAlign=middle;whiteSpace=wrap;rounded=0;" vertex="1" parent="1">
          <mxGeometry x="232.5" y="574" width="115" height="30" as="geometry" />
        </mxCell>
        <mxCell id="_U8HGJSXaKbL03fdwX9O-13" value="" style="endArrow=none;html=1;rounded=0;entryX=1;entryY=0;entryDx=0;entryDy=0;exitX=0;exitY=1;exitDx=0;exitDy=0;" edge="1" parent="1" source="_U8HGJSXaKbL03fdwX9O-6" target="_U8HGJSXaKbL03fdwX9O-6">
          <mxGeometry width="50" height="50" relative="1" as="geometry">
            <mxPoint x="290" y="410" as="sourcePoint" />
            <mxPoint x="340" y="360" as="targetPoint" />
          </mxGeometry>
        </mxCell>
        <mxCell id="_U8HGJSXaKbL03fdwX9O-14" value="" style="endArrow=none;html=1;rounded=0;entryX=1;entryY=1;entryDx=0;entryDy=0;exitX=0;exitY=0;exitDx=0;exitDy=0;" edge="1" parent="1" source="_U8HGJSXaKbL03fdwX9O-6" target="_U8HGJSXaKbL03fdwX9O-6">
          <mxGeometry width="50" height="50" relative="1" as="geometry">
            <mxPoint x="180" y="360" as="sourcePoint" />
            <mxPoint x="440" y="100" as="targetPoint" />
          </mxGeometry>
        </mxCell>
        <mxCell id="_U8HGJSXaKbL03fdwX9O-15" value="" style="rounded=0;whiteSpace=wrap;html=1;" vertex="1" parent="1">
          <mxGeometry x="160" y="630" width="260" height="40" as="geometry" />
        </mxCell>
        <mxCell id="_U8HGJSXaKbL03fdwX9O-16" value="&lt;font style=&quot;font-size: 18px;&quot;&gt;Gallery &lt;br&gt;&lt;/font&gt;" style="text;html=1;strokeColor=none;fillColor=none;align=center;verticalAlign=middle;whiteSpace=wrap;rounded=0;" vertex="1" parent="1">
          <mxGeometry x="232.5" y="634" width="115" height="30" as="geometry" />
        </mxCell>
        <mxCell id="_U8HGJSXaKbL03fdwX9O-17" value="&lt;font style=&quot;font-size: 15px;&quot;&gt;More Details &lt;br&gt;&lt;/font&gt;" style="text;html=1;strokeColor=none;fillColor=none;align=center;verticalAlign=middle;whiteSpace=wrap;rounded=0;" vertex="1" parent="1">
          <mxGeometry x="242.5" y="520" width="115" height="30" as="geometry" />
        </mxCell>
        <mxCell id="_U8HGJSXaKbL03fdwX9O-18" value="" style="rounded=0;whiteSpace=wrap;html=1;" vertex="1" parent="1">
          <mxGeometry x="130" y="60" width="330" height="60" as="geometry" />
        </mxCell>
        <mxCell id="_U8HGJSXaKbL03fdwX9O-19" value="&lt;font style=&quot;font-size: 15px;&quot;&gt;Fish Guide Pro&lt;br&gt;&lt;/font&gt;" style="text;html=1;strokeColor=none;fillColor=none;align=center;verticalAlign=middle;whiteSpace=wrap;rounded=0;" vertex="1" parent="1">
          <mxGeometry x="150" y="75" width="115" height="30" as="geometry" />
        </mxCell>
        <mxCell id="_U8HGJSXaKbL03fdwX9O-20" value="" style="ellipse;whiteSpace=wrap;html=1;aspect=fixed;fillColor=#000000;" vertex="1" parent="1">
          <mxGeometry x="435" y="75" width="5" height="5" as="geometry" />
        </mxCell>
        <mxCell id="_U8HGJSXaKbL03fdwX9O-21" value="" style="ellipse;whiteSpace=wrap;html=1;aspect=fixed;fillColor=#000000;" vertex="1" parent="1">
          <mxGeometry x="435" y="87.5" width="5" height="5" as="geometry" />
        </mxCell>
        <mxCell id="_U8HGJSXaKbL03fdwX9O-22" value="" style="ellipse;whiteSpace=wrap;html=1;aspect=fixed;fillColor=#000000;" vertex="1" parent="1">
          <mxGeometry x="435" y="100" width="5" height="5" as="geometry" />
        </mxCell>
        <mxCell id="_U8HGJSXaKbL03fdwX9O-23" value="Fish Name : " style="text;html=1;strokeColor=none;fillColor=none;align=center;verticalAlign=middle;whiteSpace=wrap;rounded=0;" vertex="1" parent="1">
          <mxGeometry x="180" y="470" width="115" height="30" as="geometry" />
        </mxCell>
      </root>
    </mxGraphModel>
  </diagram>
</mxfile>
